# xmcd
#
# Track frame offsets:
#	150
#	14558
#	25760
#	38023
#	48443
#	61642
#	75904
#	84029
#	101796
#	113739
#	126147
#
# Disc length: 1878 seconds
#
# Revision: 1
# Processed by: cddbd v1.5.2PL0 Copyright (c) Steve Scherf et al.
# Submitted via: audiograbber 1.83.01
#
DISCID=7407540b
DTITLE=Phobiatic - An Act Of Atrocity
DYEAR=2012
DGENRE=Death Metal
TTITLE0=Refuse Obedience
TTITLE1=An Unspeakable Creation
TTITLE2=Insatiable
TTITLE3=Silver Of Glass
TTITLE4=The Surgeon
TTITLE5=An Act Of Atrocity
TTITLE6=Preparing For...
TTITLE7=The Rise Of Idleness
TTITLE8=Satisfied By Capsicum
TTITLE9=Worthless
TTITLE10=Obnoxious Countenance
EXTD=
EXTT0=
EXTT1=
EXTT2=
EXTT3=
EXTT4=
EXTT5=
EXTT6=
EXTT7=
EXTT8=
EXTT9=
EXTT10=
PLAYORDER=
